<svg width="1280" height="640" viewBox="0 0 1280 640" fill="none" xmlns="http://www.w3.org/2000/svg">
<rect width="1280" height="640" fill="url(#paint0_linear)"/>
<g clip-path="url(#clip0)">
<path d="M288.328 84.8736L192.969 255.393C191 258.913 185.942 258.934 183.943 255.43L86.6934 84.89C84.5163 81.0721 87.781 76.4476 92.1074 77.2209L187.569 94.2841C188.178 94.3929 188.801 94.3919 189.41 94.2809L282.875 77.2454C287.187 76.4595 290.467 81.0482 288.328 84.8736Z" fill="url(#paint1_linear)"/>
<path d="M233.042 54.8401L162.473 68.6677C161.314 68.895 160.455 69.8779 160.385 71.0576L156.044 144.373C155.942 146.1 157.528 147.44 159.213 147.051L178.86 142.517C180.699 142.093 182.36 143.712 181.982 145.561L176.145 174.144C175.752 176.068 177.558 177.713 179.437 177.143L191.572 173.456C193.453 172.885 195.261 174.534 194.863 176.46L185.586 221.358C185.006 224.167 188.742 225.698 190.299 223.29L191.34 221.682L248.843 106.924C249.806 105.003 248.146 102.812 246.035 103.219L225.812 107.122C223.911 107.489 222.294 105.719 222.831 103.859L236.03 58.1012C236.567 56.2387 234.945 54.4673 233.042 54.8401Z" fill="url(#paint2_linear)"/>
</g>
<g filter="url(#filter0_i)">
<path d="M102.26 331L86.9 289H95.12L107 323.14L118.94 289H127.04L111.68 331H102.26ZM135.993 296.62C134.593 296.62 133.433 296.2 132.513 295.36C131.633 294.52 131.193 293.46 131.193 292.18C131.193 290.9 131.633 289.86 132.513 289.06C133.433 288.22 134.593 287.8 135.993 287.8C137.393 287.8 138.533 288.22 139.413 289.06C140.333 289.86 140.793 290.9 140.793 292.18C140.793 293.46 140.333 294.52 139.413 295.36C138.533 296.2 137.393 296.62 135.993 296.62ZM132.153 331V301.24H139.833V331H132.153ZM161.109 331C157.989 331 155.489 330.24 153.609 328.72C151.729 327.2 150.789 324.5 150.789 320.62V307.66H145.689V301.24H150.789L151.689 293.26H158.469V301.24H166.509V307.66H158.469V320.68C158.469 322.12 158.769 323.12 159.369 323.68C160.009 324.2 161.089 324.46 162.609 324.46H166.329V331H161.109ZM186.801 331.72C183.801 331.72 181.141 331.08 178.821 329.8C176.501 328.52 174.681 326.72 173.361 324.4C172.041 322.08 171.381 319.4 171.381 316.36C171.381 313.28 172.021 310.54 173.301 308.14C174.621 305.74 176.421 303.88 178.701 302.56C181.021 301.2 183.741 300.52 186.861 300.52C189.781 300.52 192.361 301.16 194.601 302.44C196.841 303.72 198.581 305.48 199.821 307.72C201.101 309.92 201.741 312.38 201.741 315.1C201.741 315.54 201.721 316 201.681 316.48C201.681 316.96 201.661 317.46 201.621 317.98H179.001C179.161 320.3 179.961 322.12 181.401 323.44C182.881 324.76 184.661 325.42 186.741 325.42C188.301 325.42 189.601 325.08 190.641 324.4C191.721 323.68 192.521 322.76 193.041 321.64H200.841C200.281 323.52 199.341 325.24 198.021 326.8C196.741 328.32 195.141 329.52 193.221 330.4C191.341 331.28 189.201 331.72 186.801 331.72ZM186.861 306.76C184.981 306.76 183.321 307.3 181.881 308.38C180.441 309.42 179.521 311.02 179.121 313.18H193.941C193.821 311.22 193.101 309.66 191.781 308.5C190.461 307.34 188.821 306.76 186.861 306.76ZM222.678 331V289H250.098V295.18H230.358V306.7H248.298V312.7H230.358V324.82H250.098V331H222.678ZM254.365 331L265.165 316.12L254.365 301.24H262.585L270.145 311.8L277.645 301.24H285.925L275.065 316.12L285.925 331H277.645L270.145 320.44L262.585 331H254.365ZM290.818 344.2V301.24H297.658L298.498 305.5C299.458 304.18 300.718 303.02 302.278 302.02C303.878 301.02 305.938 300.52 308.458 300.52C311.258 300.52 313.758 301.2 315.958 302.56C318.158 303.92 319.898 305.78 321.178 308.14C322.458 310.5 323.098 313.18 323.098 316.18C323.098 319.18 322.458 321.86 321.178 324.22C319.898 326.54 318.158 328.38 315.958 329.74C313.758 331.06 311.258 331.72 308.458 331.72C306.218 331.72 304.258 331.3 302.578 330.46C300.898 329.62 299.538 328.44 298.498 326.92V344.2H290.818ZM306.838 325C309.278 325 311.298 324.18 312.898 322.54C314.498 320.9 315.298 318.78 315.298 316.18C315.298 313.58 314.498 311.44 312.898 309.76C311.298 308.08 309.278 307.24 306.838 307.24C304.358 307.24 302.318 308.08 300.718 309.76C299.158 311.4 298.378 313.52 298.378 316.12C298.378 318.72 299.158 320.86 300.718 322.54C302.318 324.18 304.358 325 306.838 325ZM344.419 331.72C341.419 331.72 338.759 331.08 336.439 329.8C334.119 328.52 332.299 326.72 330.979 324.4C329.659 322.08 328.999 319.4 328.999 316.36C328.999 313.28 329.639 310.54 330.919 308.14C332.239 305.74 334.039 303.88 336.319 302.56C338.639 301.2 341.359 300.52 344.479 300.52C347.399 300.52 349.979 301.16 352.219 302.44C354.459 303.72 356.199 305.48 357.439 307.72C358.719 309.92 359.359 312.38 359.359 315.1C359.359 315.54 359.339 316 359.299 316.48C359.299 316.96 359.279 317.46 359.239 317.98H336.619C336.779 320.3 337.579 322.12 339.019 323.44C340.499 324.76 342.279 325.42 344.359 325.42C345.919 325.42 347.219 325.08 348.259 324.4C349.339 323.68 350.139 322.76 350.659 321.64H358.459C357.899 323.52 356.959 325.24 355.639 326.8C354.359 328.32 352.759 329.52 350.839 330.4C348.959 331.28 346.819 331.72 344.419 331.72ZM344.479 306.76C342.599 306.76 340.939 307.3 339.499 308.38C338.059 309.42 337.139 311.02 336.739 313.18H351.559C351.439 311.22 350.719 309.66 349.399 308.5C348.079 307.34 346.439 306.76 344.479 306.76ZM365.818 331V301.24H372.658L373.378 306.82C374.458 304.9 375.918 303.38 377.758 302.26C379.638 301.1 381.838 300.52 384.358 300.52V308.62H382.198C380.518 308.62 379.018 308.88 377.698 309.4C376.378 309.92 375.338 310.82 374.578 312.1C373.858 313.38 373.498 315.16 373.498 317.44V331H365.818ZM393.747 296.62C392.347 296.62 391.187 296.2 390.267 295.36C389.387 294.52 388.947 293.46 388.947 292.18C388.947 290.9 389.387 289.86 390.267 289.06C391.187 288.22 392.347 287.8 393.747 287.8C395.147 287.8 396.287 288.22 397.167 289.06C398.087 289.86 398.547 290.9 398.547 292.18C398.547 293.46 398.087 294.52 397.167 295.36C396.287 296.2 395.147 296.62 393.747 296.62ZM389.907 331V301.24H397.587V331H389.907ZM420.063 331.72C417.063 331.72 414.403 331.08 412.083 329.8C409.763 328.52 407.943 326.72 406.623 324.4C405.303 322.08 404.643 319.4 404.643 316.36C404.643 313.28 405.283 310.54 406.563 308.14C407.883 305.74 409.683 303.88 411.963 302.56C414.283 301.2 417.003 300.52 420.123 300.52C423.043 300.52 425.623 301.16 427.863 302.44C430.103 303.72 431.843 305.48 433.083 307.72C434.363 309.92 435.003 312.38 435.003 315.1C435.003 315.54 434.983 316 434.943 316.48C434.943 316.96 434.923 317.46 434.883 317.98H412.263C412.423 320.3 413.223 322.12 414.663 323.44C416.143 324.76 417.923 325.42 420.003 325.42C421.563 325.42 422.863 325.08 423.903 324.4C424.983 323.68 425.783 322.76 426.303 321.64H434.103C433.543 323.52 432.603 325.24 431.283 326.8C430.003 328.32 428.403 329.52 426.483 330.4C424.603 331.28 422.463 331.72 420.063 331.72ZM420.123 306.76C418.243 306.76 416.583 307.3 415.143 308.38C413.703 309.42 412.783 311.02 412.383 313.18H427.203C427.083 311.22 426.363 309.66 425.043 308.5C423.723 307.34 422.083 306.76 420.123 306.76ZM441.463 331V301.24H448.243L448.843 306.28C449.763 304.52 451.083 303.12 452.803 302.08C454.563 301.04 456.623 300.52 458.983 300.52C462.663 300.52 465.523 301.68 467.562 304C469.602 306.32 470.622 309.72 470.622 314.2V331H462.943V314.92C462.943 312.36 462.423 310.4 461.383 309.04C460.343 307.68 458.723 307 456.523 307C454.363 307 452.583 307.76 451.183 309.28C449.823 310.8 449.143 312.92 449.143 315.64V331H441.463ZM492.546 331.72C489.506 331.72 486.826 331.06 484.506 329.74C482.186 328.42 480.346 326.58 478.986 324.22C477.666 321.86 477.006 319.16 477.006 316.12C477.006 313.08 477.666 310.38 478.986 308.02C480.346 305.66 482.186 303.82 484.506 302.5C486.826 301.18 489.506 300.52 492.546 300.52C496.346 300.52 499.546 301.52 502.146 303.52C504.746 305.48 506.406 308.2 507.126 311.68H499.026C498.626 310.24 497.826 309.12 496.626 308.32C495.466 307.48 494.086 307.06 492.486 307.06C490.366 307.06 488.566 307.86 487.086 309.46C485.606 311.06 484.866 313.28 484.866 316.12C484.866 318.96 485.606 321.18 487.086 322.78C488.566 324.38 490.366 325.18 492.486 325.18C494.086 325.18 495.466 324.78 496.626 323.98C497.826 323.18 498.626 322.04 499.026 320.56H507.126C506.406 323.92 504.746 326.62 502.146 328.66C499.546 330.7 496.346 331.72 492.546 331.72ZM528.403 331.72C525.403 331.72 522.743 331.08 520.423 329.8C518.103 328.52 516.283 326.72 514.963 324.4C513.643 322.08 512.983 319.4 512.983 316.36C512.983 313.28 513.623 310.54 514.903 308.14C516.223 305.74 518.023 303.88 520.303 302.56C522.623 301.2 525.343 300.52 528.463 300.52C531.383 300.52 533.963 301.16 536.203 302.44C538.443 303.72 540.183 305.48 541.423 307.72C542.703 309.92 543.343 312.38 543.343 315.1C543.343 315.54 543.323 316 543.283 316.48C543.283 316.96 543.263 317.46 543.223 317.98H520.603C520.763 320.3 521.563 322.12 523.003 323.44C524.483 324.76 526.263 325.42 528.343 325.42C529.903 325.42 531.203 325.08 532.243 324.4C533.323 323.68 534.123 322.76 534.643 321.64H542.443C541.883 323.52 540.943 325.24 539.623 326.8C538.343 328.32 536.743 329.52 534.823 330.4C532.943 331.28 530.803 331.72 528.403 331.72ZM528.463 306.76C526.583 306.76 524.923 307.3 523.483 308.38C522.043 309.42 521.123 311.02 520.723 313.18H535.543C535.423 311.22 534.703 309.66 533.383 308.5C532.063 307.34 530.423 306.76 528.463 306.76ZM95.72 409L87.02 379.24H94.64L99.8 400.66L105.8 379.24H114.32L120.32 400.66L125.54 379.24H133.16L124.4 409H116.42L110.06 386.74L103.7 409H95.72ZM142.145 374.62C140.745 374.62 139.585 374.2 138.665 373.36C137.785 372.52 137.345 371.46 137.345 370.18C137.345 368.9 137.785 367.86 138.665 367.06C139.585 366.22 140.745 365.8 142.145 365.8C143.545 365.8 144.685 366.22 145.565 367.06C146.485 367.86 146.945 368.9 146.945 370.18C146.945 371.46 146.485 372.52 145.565 373.36C144.685 374.2 143.545 374.62 142.145 374.62ZM138.305 409V379.24H145.985V409H138.305ZM167.262 409C164.142 409 161.642 408.24 159.762 406.72C157.882 405.2 156.942 402.5 156.942 398.62V385.66H151.842V379.24H156.942L157.842 371.26H164.622V379.24H172.662V385.66H164.622V398.68C164.622 400.12 164.922 401.12 165.522 401.68C166.162 402.2 167.242 402.46 168.762 402.46H172.482V409H167.262ZM179.255 409V365.8H186.935V383.8C187.935 382.16 189.275 380.88 190.955 379.96C192.675 379 194.635 378.52 196.835 378.52C200.515 378.52 203.355 379.68 205.355 382C207.395 384.32 208.415 387.72 208.415 392.2V409H200.795V392.92C200.795 390.36 200.275 388.4 199.235 387.04C198.235 385.68 196.635 385 194.435 385C192.275 385 190.475 385.76 189.035 387.28C187.635 388.8 186.935 390.92 186.935 393.64V409H179.255ZM230.236 409V367H237.916L257.656 396.58V367H265.336V409H257.656L237.916 379.48V409H230.236ZM284.458 409.72C280.738 409.72 277.858 408.56 275.818 406.24C273.818 403.92 272.818 400.52 272.818 396.04V379.24H280.438V395.32C280.438 397.88 280.958 399.84 281.998 401.2C283.038 402.56 284.678 403.24 286.918 403.24C289.038 403.24 290.778 402.48 292.138 400.96C293.538 399.44 294.238 397.32 294.238 394.6V379.24H301.918V409H295.138L294.538 403.96C293.618 405.72 292.278 407.12 290.518 408.16C288.798 409.2 286.778 409.72 284.458 409.72ZM306.982 409L317.782 394.12L306.982 379.24H315.202L322.762 389.8L330.262 379.24H338.542L327.682 394.12L338.542 409H330.262L322.762 398.44L315.202 409H306.982ZM356.695 409C353.575 409 351.075 408.24 349.195 406.72C347.315 405.2 346.375 402.5 346.375 398.62V385.66H341.275V379.24H346.375L347.275 371.26H354.055V379.24H362.095V385.66H354.055V398.68C354.055 400.12 354.355 401.12 354.955 401.68C355.595 402.2 356.675 402.46 358.195 402.46H361.915V409H356.695ZM382.146 409V403.42C384.706 401.3 387.186 399.2 389.586 397.12C392.026 395.04 394.186 392.98 396.066 390.94C397.986 388.9 399.506 386.92 400.626 385C401.786 383.04 402.366 381.14 402.366 379.3C402.366 377.58 401.886 376.06 400.926 374.74C400.006 373.42 398.466 372.76 396.306 372.76C394.106 372.76 392.446 373.48 391.326 374.92C390.206 376.36 389.646 378.1 389.646 380.14H382.206C382.286 377.06 382.966 374.5 384.246 372.46C385.526 370.38 387.226 368.84 389.346 367.84C391.466 366.8 393.846 366.28 396.486 366.28C400.766 366.28 404.086 367.46 406.446 369.82C408.846 372.14 410.046 375.16 410.046 378.88C410.046 381.2 409.506 383.46 408.426 385.66C407.386 387.86 406.006 389.98 404.286 392.02C402.566 394.06 400.706 395.98 398.706 397.78C396.706 399.54 394.766 401.18 392.886 402.7H411.066V409H382.146Z" fill="#F5F9F9"/>
</g>
<path d="M94.48 555.008C93.584 555.008 92.7627 554.891 92.016 554.656L90.416 556.16C90.6507 556.331 90.9387 556.48 91.28 556.608C91.6427 556.715 92.1547 556.821 92.816 556.928C93.4773 557.013 94.4053 557.109 95.6 557.216C97.7333 557.365 99.2587 557.856 100.176 558.688C101.093 559.52 101.552 560.608 101.552 561.952C101.552 562.869 101.296 563.744 100.784 564.576C100.293 565.408 99.5253 566.091 98.48 566.624C97.456 567.157 96.1333 567.424 94.512 567.424C93.0827 567.424 91.8133 567.232 90.704 566.848C89.5947 566.485 88.7307 565.92 88.112 565.152C87.4933 564.405 87.184 563.456 87.184 562.304C87.184 561.707 87.344 561.056 87.664 560.352C87.984 559.669 88.5813 559.019 89.456 558.4C88.9867 558.208 88.5813 558.005 88.24 557.792C87.92 557.557 87.6213 557.301 87.344 557.024V556.288L90.064 553.6C88.8053 552.533 88.176 551.125 88.176 549.376C88.176 548.331 88.4213 547.381 88.912 546.528C89.4027 545.675 90.1173 545.003 91.056 544.512C91.9947 544 93.136 543.744 94.48 543.744C95.3973 543.744 96.2293 543.872 96.976 544.128H102.832V546.144L99.856 546.272C100.475 547.168 100.784 548.203 100.784 549.376C100.784 550.421 100.528 551.371 100.016 552.224C99.5253 553.077 98.8107 553.76 97.872 554.272C96.9547 554.763 95.824 555.008 94.48 555.008ZM94.48 552.8C95.6107 552.8 96.5067 552.512 97.168 551.936C97.8507 551.339 98.192 550.485 98.192 549.376C98.192 548.288 97.8507 547.456 97.168 546.88C96.5067 546.283 95.6107 545.984 94.48 545.984C93.328 545.984 92.4107 546.283 91.728 546.88C91.0667 547.456 90.736 548.288 90.736 549.376C90.736 550.485 91.0667 551.339 91.728 551.936C92.4107 552.512 93.328 552.8 94.48 552.8ZM89.808 562.048C89.808 563.115 90.256 563.904 91.152 564.416C92.048 564.949 93.168 565.216 94.512 565.216C95.8347 565.216 96.8907 564.928 97.68 564.352C98.4907 563.776 98.896 563.008 98.896 562.048C98.896 561.365 98.6187 560.768 98.064 560.256C97.5093 559.765 96.4853 559.477 94.992 559.392C93.8187 559.307 92.8053 559.2 91.952 559.072C91.0773 559.541 90.5013 560.043 90.224 560.576C89.9467 561.131 89.808 561.621 89.808 562.048ZM107.496 540.608C106.963 540.608 106.515 540.437 106.152 540.096C105.811 539.733 105.64 539.285 105.64 538.752C105.64 538.24 105.811 537.813 106.152 537.472C106.515 537.131 106.963 536.96 107.496 536.96C108.008 536.96 108.446 537.131 108.808 537.472C109.171 537.813 109.352 538.24 109.352 538.752C109.352 539.285 109.171 539.733 108.808 540.096C108.446 540.437 108.008 540.608 107.496 540.608ZM106.152 560V544.128H108.84V560H106.152ZM119.793 560C118.342 560 117.201 559.648 116.369 558.944C115.537 558.24 115.121 556.971 115.121 555.136V546.4H112.368V544.128H115.121L115.473 540.32H117.809V544.128H122.481V546.4H117.809V555.136C117.809 556.139 118.011 556.821 118.417 557.184C118.822 557.525 119.537 557.696 120.561 557.696H122.225V560H119.793ZM125.896 560V536.96H128.584V546.848C129.117 545.867 129.874 545.109 130.856 544.576C131.837 544.021 132.904 543.744 134.056 543.744C135.89 543.744 137.362 544.32 138.472 545.472C139.581 546.603 140.135 548.352 140.135 550.72V560H137.48V551.008C137.48 547.701 136.146 546.048 133.48 546.048C132.093 546.048 130.93 546.549 129.992 547.552C129.053 548.533 128.584 549.941 128.584 551.776V560H125.896ZM150 560.384C148.123 560.384 146.629 559.819 145.52 558.688C144.411 557.536 143.856 555.776 143.856 553.408V544.128H146.544V553.12C146.544 556.427 147.899 558.08 150.608 558.08C151.995 558.08 153.136 557.589 154.032 556.608C154.949 555.605 155.408 554.187 155.408 552.352V544.128H158.096V560H155.664L155.472 557.152C154.981 558.155 154.245 558.944 153.264 559.52C152.304 560.096 151.216 560.384 150 560.384ZM171.001 560.384C169.699 560.384 168.537 560.117 167.513 559.584C166.51 559.051 165.742 558.304 165.209 557.344L164.953 560H162.521V536.96H165.209V546.752C165.721 545.984 166.446 545.291 167.385 544.672C168.345 544.053 169.561 543.744 171.033 543.744C172.611 543.744 173.987 544.107 175.161 544.832C176.334 545.557 177.241 546.549 177.881 547.808C178.542 549.067 178.873 550.496 178.873 552.096C178.873 553.696 178.542 555.125 177.881 556.384C177.241 557.621 176.323 558.603 175.129 559.328C173.955 560.032 172.579 560.384 171.001 560.384ZM170.713 558.048C171.779 558.048 172.718 557.803 173.529 557.312C174.339 556.8 174.979 556.096 175.449 555.2C175.918 554.304 176.153 553.259 176.153 552.064C176.153 550.869 175.918 549.824 175.449 548.928C174.979 548.032 174.339 547.339 173.529 546.848C172.718 546.336 171.779 546.08 170.713 546.08C169.646 546.08 168.707 546.336 167.897 546.848C167.086 547.339 166.446 548.032 165.977 548.928C165.507 549.824 165.273 550.869 165.273 552.064C165.273 553.259 165.507 554.304 165.977 555.2C166.446 556.096 167.086 556.8 167.897 557.312C168.707 557.803 169.646 558.048 170.713 558.048ZM183.542 560.16C183.009 560.16 182.561 559.989 182.198 559.648C181.857 559.285 181.686 558.848 181.686 558.336C181.686 557.824 181.857 557.397 182.198 557.056C182.561 556.693 183.009 556.512 183.542 556.512C184.054 556.512 184.481 556.693 184.822 557.056C185.185 557.397 185.366 557.824 185.366 558.336C185.366 558.848 185.185 559.285 184.822 559.648C184.481 559.989 184.054 560.16 183.542 560.16ZM196.16 560.384C194.646 560.384 193.28 560.043 192.064 559.36C190.87 558.656 189.92 557.685 189.216 556.448C188.534 555.189 188.192 553.728 188.192 552.064C188.192 550.4 188.534 548.949 189.216 547.712C189.92 546.453 190.87 545.483 192.064 544.8C193.28 544.096 194.646 543.744 196.16 543.744C198.038 543.744 199.616 544.235 200.896 545.216C202.198 546.197 203.019 547.509 203.36 549.152H200.608C200.395 548.171 199.872 547.413 199.04 546.88C198.208 546.325 197.238 546.048 196.128 546.048C195.232 546.048 194.39 546.272 193.6 546.72C192.811 547.168 192.171 547.84 191.68 548.736C191.19 549.632 190.944 550.741 190.944 552.064C190.944 553.387 191.19 554.496 191.68 555.392C192.171 556.288 192.811 556.971 193.6 557.44C194.39 557.888 195.232 558.112 196.128 558.112C197.238 558.112 198.208 557.845 199.04 557.312C199.872 556.757 200.395 555.979 200.608 554.976H203.36C203.04 556.576 202.23 557.877 200.928 558.88C199.627 559.883 198.038 560.384 196.16 560.384ZM214.346 560.384C212.853 560.384 211.509 560.043 210.314 559.36C209.12 558.677 208.17 557.717 207.466 556.48C206.784 555.221 206.442 553.749 206.442 552.064C206.442 550.379 206.794 548.917 207.498 547.68C208.202 546.421 209.152 545.451 210.346 544.768C211.562 544.085 212.917 543.744 214.41 543.744C215.904 543.744 217.248 544.085 218.442 544.768C219.637 545.451 220.576 546.421 221.258 547.68C221.962 548.917 222.314 550.379 222.314 552.064C222.314 553.749 221.962 555.221 221.258 556.48C220.554 557.717 219.594 558.677 218.378 559.36C217.184 560.043 215.84 560.384 214.346 560.384ZM214.346 558.08C215.264 558.08 216.117 557.856 216.906 557.408C217.696 556.96 218.336 556.288 218.826 555.392C219.317 554.496 219.562 553.387 219.562 552.064C219.562 550.741 219.317 549.632 218.826 548.736C218.357 547.84 217.728 547.168 216.938 546.72C216.149 546.272 215.306 546.048 214.41 546.048C213.493 546.048 212.64 546.272 211.85 546.72C211.061 547.168 210.421 547.84 209.93 548.736C209.44 549.632 209.194 550.741 209.194 552.064C209.194 553.387 209.44 554.496 209.93 555.392C210.421 556.288 211.05 556.96 211.818 557.408C212.608 557.856 213.45 558.08 214.346 558.08ZM226.052 560V544.128H228.484L228.676 546.432C229.188 545.579 229.87 544.917 230.724 544.448C231.577 543.979 232.537 543.744 233.604 543.744C234.862 543.744 235.94 544 236.836 544.512C237.753 545.024 238.457 545.803 238.948 546.848C239.502 545.888 240.26 545.131 241.22 544.576C242.201 544.021 243.257 543.744 244.388 543.744C246.286 543.744 247.801 544.32 248.932 545.472C250.062 546.603 250.628 548.352 250.628 550.72V560H247.972V551.008C247.972 549.365 247.641 548.128 246.98 547.296C246.318 546.464 245.369 546.048 244.132 546.048C242.852 546.048 241.785 546.549 240.932 547.552C240.1 548.533 239.684 549.941 239.684 551.776V560H236.996V551.008C236.996 549.365 236.665 548.128 236.004 547.296C235.342 546.464 234.393 546.048 233.156 546.048C231.897 546.048 230.841 546.549 229.988 547.552C229.156 548.533 228.74 549.941 228.74 551.776V560H226.052ZM253.365 563.04L261.397 535.552H264.053L256.021 563.04H253.365ZM266.614 560V544.128H269.046L269.206 546.976C269.718 545.973 270.454 545.184 271.414 544.608C272.374 544.032 273.462 543.744 274.678 543.744C276.556 543.744 278.049 544.32 279.158 545.472C280.289 546.603 280.854 548.352 280.854 550.72V560H278.166V551.008C278.166 547.701 276.801 546.048 274.07 546.048C272.705 546.048 271.564 546.549 270.646 547.552C269.75 548.533 269.302 549.941 269.302 551.776V560H266.614ZM290.719 560.384C288.841 560.384 287.348 559.819 286.239 558.688C285.129 557.536 284.575 555.776 284.575 553.408V544.128H287.263V553.12C287.263 556.427 288.617 558.08 291.327 558.08C292.713 558.08 293.855 557.589 294.751 556.608C295.668 555.605 296.127 554.187 296.127 552.352V544.128H298.815V560H296.383L296.191 557.152C295.7 558.155 294.964 558.944 293.983 559.52C293.023 560.096 291.935 560.384 290.719 560.384ZM301.639 560L307.143 552.064L301.639 544.128H304.551L308.999 550.688L313.479 544.128H316.359L310.855 552.064L316.359 560H313.479L308.999 553.44L304.551 560H301.639ZM325.449 560C323.998 560 322.857 559.648 322.025 558.944C321.193 558.24 320.777 556.971 320.777 555.136V546.4H318.025V544.128H320.777L321.129 540.32H323.465V544.128H328.137V546.4H323.465V555.136C323.465 556.139 323.667 556.821 324.073 557.184C324.478 557.525 325.193 557.696 326.217 557.696H327.881V560H325.449ZM330.24 563.04L338.272 535.552H340.928L332.896 563.04H330.24ZM348.628 560L342.612 544.128H345.428L350.196 557.408L354.996 544.128H357.748L351.732 560H348.628ZM362.371 540.608C361.838 540.608 361.39 540.437 361.027 540.096C360.686 539.733 360.515 539.285 360.515 538.752C360.515 538.24 360.686 537.813 361.027 537.472C361.39 537.131 361.838 536.96 362.371 536.96C362.883 536.96 363.321 537.131 363.683 537.472C364.046 537.813 364.227 538.24 364.227 538.752C364.227 539.285 364.046 539.733 363.683 540.096C363.321 540.437 362.883 540.608 362.371 540.608ZM361.027 560V544.128H363.715V560H361.027ZM374.668 560C373.217 560 372.076 559.648 371.244 558.944C370.412 558.24 369.996 556.971 369.996 555.136V546.4H367.243V544.128H369.996L370.348 540.32H372.684V544.128H377.356V546.4H372.684V555.136C372.684 556.139 372.886 556.821 373.292 557.184C373.697 557.525 374.412 557.696 375.436 557.696H377.1V560H374.668ZM387.469 560.384C385.954 560.384 384.61 560.043 383.437 559.36C382.264 558.656 381.336 557.685 380.653 556.448C379.992 555.211 379.661 553.749 379.661 552.064C379.661 550.4 379.992 548.949 380.653 547.712C381.314 546.453 382.232 545.483 383.405 544.8C384.6 544.096 385.976 543.744 387.533 543.744C389.069 543.744 390.392 544.096 391.501 544.8C392.632 545.483 393.496 546.389 394.093 547.52C394.69 548.651 394.989 549.867 394.989 551.168C394.989 551.403 394.978 551.637 394.957 551.872C394.957 552.107 394.957 552.373 394.957 552.672H382.317C382.381 553.888 382.658 554.901 383.149 555.712C383.661 556.501 384.29 557.099 385.037 557.504C385.805 557.909 386.616 558.112 387.469 558.112C388.578 558.112 389.506 557.856 390.253 557.344C391 556.832 391.544 556.139 391.885 555.264H394.541C394.114 556.736 393.293 557.963 392.077 558.944C390.882 559.904 389.346 560.384 387.469 560.384ZM387.469 546.016C386.189 546.016 385.048 546.411 384.045 547.2C383.064 547.968 382.498 549.099 382.349 550.592H392.333C392.269 549.163 391.778 548.043 390.861 547.232C389.944 546.421 388.813 546.016 387.469 546.016Z" fill="#09BA71"/>
<path d="M1228.08 566.854L1157.26 440.406C1151.44 430.108 1136.35 430.108 1130.51 440.394L1122.93 453.908L1131.73 469.537L1143.97 448.094L1214.6 573.683H1189.44C1190.75 581.685 1183.83 589.506 1173.99 589.506H1214.69C1226.33 589.518 1233.69 576.862 1228.08 566.854Z" fill="#00DC82"/>
<path d="M1057.1 573.683H999.479L1086.47 418.818L1114.73 468.667L1122.95 453.92L1098.21 409.97C1092.94 400.651 1079.81 400.687 1074.59 410.018L985.777 568.824C980.569 578.131 987.432 589.518 998.259 589.518H1072.56C1062.71 589.518 1055.8 581.697 1057.1 573.683Z" fill="#00DC82"/>
<path d="M1189.44 573.683C1189.21 572.257 1188.72 570.83 1187.94 569.428L1131.74 469.537L1122.95 453.908L1114.73 468.655L1058.59 569.44C1057.82 570.83 1057.33 572.257 1057.09 573.671C1055.79 581.673 1062.71 589.493 1072.55 589.493H1075.33H1173.96H1173.97C1183.82 589.505 1190.73 581.697 1189.44 573.683ZM1073.27 573.683L1123.42 484.852L1173.26 573.683H1073.27Z" fill="#00DC82"/>
<defs>
<filter id="filter0_i" x="86.9" y="287.8" width="456.443" height="125.92" filterUnits="userSpaceOnUse" color-interpolation-filters="sRGB">
<feFlood flood-opacity="0" result="BackgroundImageFix"/>
<feBlend mode="normal" in="SourceGraphic" in2="BackgroundImageFix" result="shape"/>
<feColorMatrix in="SourceAlpha" type="matrix" values="0 0 0 0 0 0 0 0 0 0 0 0 0 0 0 0 0 0 127 0" result="hardAlpha"/>
<feOffset dy="4"/>
<feGaussianBlur stdDeviation="2"/>
<feComposite in2="hardAlpha" operator="arithmetic" k2="-1" k3="1"/>
<feColorMatrix type="matrix" values="0 0 0 0 0 0 0 0 0 0 0 0 0 0 0 0 0 0 0.15 0"/>
<feBlend mode="normal" in2="shape" result="effect1_innerShadow"/>
</filter>
<linearGradient id="paint0_linear" x1="640" y1="0" x2="640" y2="640" gradientUnits="userSpaceOnUse">
<stop stop-color="#003543"/>
<stop offset="1" stop-color="#001E26"/>
</linearGradient>
<linearGradient id="paint1_linear" x1="84.319" y1="71.1268" x2="203.001" y2="232.307" gradientUnits="userSpaceOnUse">
<stop stop-color="#41D1FF"/>
<stop offset="1" stop-color="#BD34FE"/>
</linearGradient>
<linearGradient id="paint2_linear" x1="182.09" y1="58.5943" x2="203.559" y2="205.869" gradientUnits="userSpaceOnUse">
<stop stop-color="#FFEA83"/>
<stop offset="0.0833333" stop-color="#FFDD35"/>
<stop offset="1" stop-color="#FFA800"/>
</linearGradient>
<clipPath id="clip0">
<path d="M86 89C86 79.5719 86 74.8579 88.9289 71.9289C91.8579 69 96.5719 69 106 69H269C278.428 69 283.142 69 286.071 71.9289C289 74.8579 289 79.5719 289 89V252C289 261.428 289 266.142 286.071 269.071C283.142 272 278.428 272 269 272H106C96.5719 272 91.8579 272 88.9289 269.071C86 266.142 86 261.428 86 252V89Z" fill="white"/>
</clipPath>
</defs>
</svg>
